<svg height="830" width="720" xmlns="http://www.w3.org/2000/svg">
<rect height="830" fill="#555" width="720"></rect>
<text fill="#7f7" font-family="Courier New" font-size="12" xml:space="preserve">
<tspan x="10" y="26">6 megabytes installed</tspan>
<tspan x="10" y="42"></tspan>
<tspan x="10" y="58">node_modules</tspan>
<tspan x="10" y="74">└─┬ mongodb-backup@1.6.9 </tspan>
<tspan x="10" y="90">  ├── bson@1.0.1 </tspan>
<tspan x="10" y="106">  ├─┬ fstream@1.0.10 </tspan>
<tspan x="10" y="122">  │ ├── inherits@2.0.3 </tspan>
<tspan x="10" y="138">  │ ├─┬ mkdirp@0.5.1 </tspan>
<tspan x="10" y="154">  │ │ └── minimist@0.0.8 </tspan>
<tspan x="10" y="170">  │ └─┬ rimraf@2.6.1 </tspan>
<tspan x="10" y="186">  │   └─┬ glob@7.1.1 </tspan>
<tspan x="10" y="202">  │     ├── fs.realpath@1.0.0 </tspan>
<tspan x="10" y="218">  │     ├─┬ inflight@1.0.6 </tspan>
<tspan x="10" y="234">  │     │ └── wrappy@1.0.2 </tspan>
<tspan x="10" y="250">  │     ├─┬ minimatch@3.0.3 </tspan>
<tspan x="10" y="266">  │     │ └─┬ brace-expansion@1.1.7 </tspan>
<tspan x="10" y="282">  │     │   ├── balanced-match@0.4.2 </tspan>
<tspan x="10" y="298">  │     │   └── concat-map@0.0.1 </tspan>
<tspan x="10" y="314">  │     ├── once@1.4.0 </tspan>
<tspan x="10" y="330">  │     └── path-is-absolute@1.0.1 </tspan>
<tspan x="10" y="346">  ├── graceful-fs@4.1.11 </tspan>
<tspan x="10" y="362">  ├─┬ logger-request@3.7.3 </tspan>
<tspan x="10" y="378">  │ ├─┬ basic-authentication@1.7.0 </tspan>
<tspan x="10" y="394">  │ │ └── setheaders@0.1.7 </tspan>
<tspan x="10" y="410">  │ ├─┬ on-finished@2.3.0 </tspan>
<tspan x="10" y="426">  │ │ └── ee-first@1.1.1 </tspan>
<tspan x="10" y="442">  │ ├── transfer-rate@1.2.0 </tspan>
<tspan x="10" y="458">  │ ├─┬ winston@2.3.0 </tspan>
<tspan x="10" y="474">  │ │ ├── async@1.0.0 </tspan>
<tspan x="10" y="490">  │ │ ├── colors@1.0.3 </tspan>
<tspan x="10" y="506">  │ │ ├── cycle@1.0.3 </tspan>
<tspan x="10" y="522">  │ │ ├── eyes@0.1.8 </tspan>
<tspan x="10" y="538">  │ │ ├── isstream@0.1.2 </tspan>
<tspan x="10" y="554">  │ │ └── stack-trace@0.0.9 </tspan>
<tspan x="10" y="570">  │ └── winston-daily-rotate-file@1.4.0 </tspan>
<tspan x="10" y="586">  ├─┬ mongodb@2.2.16 </tspan>
<tspan x="10" y="602">  │ ├── es6-promise@3.2.1 </tspan>
<tspan x="10" y="618">  │ ├─┬ mongodb-core@2.1.2 </tspan>
<tspan x="10" y="634">  │ │ └─┬ require_optional@1.0.0 </tspan>
<tspan x="10" y="650">  │ │   ├── resolve-from@2.0.0 </tspan>
<tspan x="10" y="666">  │ │   └── semver@5.3.0 </tspan>
<tspan x="10" y="682">  │ └─┬ readable-stream@2.1.5 </tspan>
<tspan x="10" y="698">  │   ├── buffer-shims@1.0.0 </tspan>
<tspan x="10" y="714">  │   ├── core-util-is@1.0.2 </tspan>
<tspan x="10" y="730">  │   ├── isarray@1.0.0 </tspan>
<tspan x="10" y="746">  │   ├── process-nextick-args@1.0.7 </tspan>
<tspan x="10" y="762">  │   ├── string_decoder@0.10.31 </tspan>
<tspan x="10" y="778">  │   └── util-deprecate@1.0.2 </tspan>
<tspan x="10" y="794">  └─┬ tar@2.2.1 </tspan>
<tspan x="10" y="810">    └── block-stream@0.0.9</tspan>
</text>
</svg>
